<?xml version="1.0" encoding="utf-8"?>
<!-- Generator: Adobe Illustrator 16.0.0, SVG Export Plug-In . SVG Version: 6.00 Build 0)  -->
<!DOCTYPE svg PUBLIC "-//W3C//DTD SVG 1.1//EN" "http://www.w3.org/Graphics/SVG/1.1/DTD/svg11.dtd">
<svg version="1.1" xmlns="http://www.w3.org/2000/svg" xmlns:xlink="http://www.w3.org/1999/xlink" x="0px" y="0px" width="960px"
	 height="560px" viewBox="0 0 960 560" enable-background="new 0 0 960 560" xml:space="preserve">
<g id="Layer_1" display="none">
	<g display="inline">
		<polygon fill="#29ABE2" points="465,-400 465,-384 407,-384 407,-363 465,-363 465,-311 385,-311 385,-326 443,-326 443,-348 
			385,-348 385,-400 		"/>
		<g>
			<path d="M463.409-399.707c0,5.081,0,10.162,0,15.242c0.5-0.5,1-1,1.5-1.5c-19.172,0-38.343,0-57.515,0
				c-0.818,0-1.5,0.682-1.5,1.5c0,7.098,0,14.195,0,21.293c0,0.818,0.682,1.5,1.5,1.5c19.172,0,38.343,0,57.515,0
				c-0.5-0.5-1-1-1.5-1.5c0,17.468,0,34.936,0,52.404c0.5-0.5,1-1,1.5-1.5c-26.599,0-53.199,0-79.798,0c0.5,0.5,1,1,1.5,1.5
				c0-5.064,0-10.128,0-15.192c-0.5,0.5-1,1-1.5,1.5c19.212,0,38.424,0,57.636,0c0.818,0,1.5-0.682,1.5-1.5
				c0-7.367,0-14.734,0-22.101c0-0.818-0.682-1.5-1.5-1.5c-19.212,0-38.424,0-57.636,0c0.5,0.5,1,1,1.5,1.5
				c0-17.215,0-34.431,0-51.646c-0.5,0.5-1,1-1.5,1.5c26.599,0,53.199,0,79.798,0c1.935,0,1.935-3,0-3c-26.599,0-53.199,0-79.798,0
				c-0.818,0-1.5,0.682-1.5,1.5c0,17.215,0,34.431,0,51.646c0,0.818,0.682,1.5,1.5,1.5c19.212,0,38.424,0,57.636,0
				c-0.5-0.5-1-1-1.5-1.5c0,7.367,0,14.734,0,22.101c0.5-0.5,1-1,1.5-1.5c-19.212,0-38.424,0-57.636,0c-0.818,0-1.5,0.682-1.5,1.5
				c0,5.064,0,10.128,0,15.192c0,0.817,0.682,1.5,1.5,1.5c26.599,0,53.199,0,79.798,0c0.818,0,1.5-0.683,1.5-1.5
				c0-17.468,0-34.936,0-52.404c0-0.818-0.682-1.5-1.5-1.5c-19.172,0-38.343,0-57.515,0c0.5,0.5,1,1,1.5,1.5
				c0-7.098,0-14.195,0-21.293c-0.5,0.5-1,1-1.5,1.5c19.172,0,38.343,0,57.515,0c0.818,0,1.5-0.682,1.5-1.5
				c0-5.081,0-10.162,0-15.242C466.409-401.642,463.409-401.642,463.409-399.707z"/>
		</g>
	</g>
	<g display="inline">
		<polygon fill="#29ABE2" points="465.602,-311.225 479.383,-311.275 479.28,-374.917 498.531,-374.988 498.635,-311.347 
			546.016,-311.523 545.873,-399.821 532.137,-399.771 532.24,-335.994 512.258,-335.92 512.154,-399.696 465.459,-399.523 		"/>
		<g>
			<path d="M465.602-309.725c4.594-0.017,9.187-0.033,13.781-0.051c0.817-0.003,1.501-0.68,1.5-1.5
				c-0.035-21.214-0.069-42.428-0.103-63.642c-0.5,0.5-1,1-1.5,1.5c6.417-0.024,12.834-0.047,19.251-0.071c-0.5-0.5-1-1-1.5-1.5
				c0.034,21.214,0.068,42.428,0.104,63.642c0.001,0.815,0.681,1.503,1.5,1.5c15.794-0.059,31.587-0.117,47.381-0.177
				c0.816-0.003,1.502-0.68,1.5-1.5c-0.047-29.433-0.095-58.865-0.143-88.298c-0.001-0.815-0.681-1.503-1.5-1.5
				c-4.579,0.017-9.157,0.034-13.736,0.051c-0.816,0.003-1.502,0.68-1.5,1.5c0.034,21.259,0.068,42.518,0.104,63.776
				c0.5-0.5,1-1,1.5-1.5c-6.661,0.025-13.321,0.05-19.982,0.074c0.5,0.5,1,1,1.5,1.5c-0.034-21.259-0.068-42.518-0.104-63.776
				c-0.001-0.815-0.681-1.503-1.5-1.5c-15.565,0.058-31.13,0.115-46.695,0.173c-0.817,0.003-1.501,0.68-1.5,1.5
				c0.048,29.433,0.096,58.866,0.143,88.299c0.003,1.935,3.004,1.936,3.001,0c-0.048-29.433-0.096-58.866-0.143-88.299
				c-0.5,0.5-1,1-1.5,1.5c15.565-0.058,31.13-0.115,46.695-0.173c-0.5-0.5-1-1-1.5-1.5c0.034,21.259,0.068,42.518,0.104,63.776
				c0.001,0.815,0.681,1.503,1.5,1.5c6.661-0.025,13.321-0.05,19.982-0.074c0.816-0.003,1.502-0.68,1.5-1.5
				c-0.034-21.259-0.068-42.518-0.104-63.776c-0.5,0.5-1,1-1.5,1.5c4.579-0.017,9.157-0.034,13.736-0.051c-0.5-0.5-1-1-1.5-1.5
				c0.047,29.433,0.095,58.865,0.143,88.298c0.5-0.5,1-1,1.5-1.5c-15.794,0.059-31.587,0.118-47.381,0.177c0.5,0.5,1,1,1.5,1.5
				c-0.034-21.214-0.068-42.428-0.104-63.642c-0.001-0.815-0.681-1.503-1.5-1.5c-6.417,0.024-12.834,0.047-19.251,0.071
				c-0.817,0.003-1.501,0.68-1.5,1.5c0.035,21.214,0.069,42.428,0.103,63.642c0.5-0.5,1-1,1.5-1.5
				c-4.594,0.017-9.187,0.034-13.781,0.051C463.667-312.718,463.667-309.717,465.602-309.725z"/>
		</g>
	</g>
</g>
<g id="Layer_2">
	<g display="none">
		<ellipse display="inline" cx="480" cy="-313.25" rx="82.768" ry="83.427"/>
		<g display="inline">
			<g>
				<g>
					<path fill="#FFFFFF" d="M477.625-327.25c0-14.5,0-29,0-43.5c0-0.613-0.512-1.125-1.125-1.125c-13.667,0-27.333,0-41,0
						c-0.613,0-1.125,0.512-1.125,1.125c0,20.333,0,40.667,0,61c0,0.613,0.512,1.125,1.125,1.125c13.333,0,26.667,0,40,0
						c-0.375-0.375-0.75-0.75-1.125-1.125c0,18,0,36,0,54c0.375-0.375,0.75-0.75,1.125-1.125c-13.667,0-27.333,0-41,0
						c0.375,0.375,0.75,0.75,1.125,1.125c0-10.833,0-21.667,0-32.5c0-1.451-2.25-1.451-2.25,0c0,10.833,0,21.667,0,32.5
						c0,0.613,0.512,1.125,1.125,1.125c13.667,0,27.333,0,41,0c0.613,0,1.125-0.512,1.125-1.125c0-18,0-36,0-54
						c0-0.613-0.512-1.125-1.125-1.125c-13.333,0-26.667,0-40,0c0.375,0.375,0.75,0.75,1.125,1.125c0-20.333,0-40.667,0-61
						c-0.375,0.375-0.75,0.75-1.125,1.125c13.667,0,27.333,0,41,0c-0.375-0.375-0.75-0.75-1.125-1.125c0,14.5,0,29,0,43.5
						C475.375-325.799,477.625-325.799,477.625-327.25L477.625-327.25z"/>
				</g>
			</g>
			<g>
				<g>
					<path fill="#FFFFFF" d="M524.375-370.25c0,38.333,0,76.667,0,115c0.736-0.1,1.474-0.199,2.21-0.299
						c-13.667-38.334-27.333-76.667-41-115c-0.415-1.164-2.21-1.024-2.21,0.299c0,38.333,0,76.667,0,115c0,1.451,2.25,1.451,2.25,0
						c0-38.333,0-76.667,0-115c-0.736,0.1-1.474,0.199-2.21,0.299c13.667,38.333,27.333,76.667,41,115
						c0.415,1.163,2.21,1.023,2.21-0.299c0-38.333,0-76.667,0-115C526.625-371.701,524.375-371.701,524.375-370.25L524.375-370.25z"
						/>
				</g>
			</g>
		</g>
	</g>
	<g display="none">
		<ellipse display="inline" cx="84.768" cy="-118.427" rx="82.768" ry="83.427"/>
		<g display="inline">
			<g>
				<g>
					<path fill="#FFFFFF" d="M82.393-132.427c0-14.5,0-29,0-43.5c0-0.613-0.512-1.125-1.125-1.125c-13.667,0-27.333,0-41,0
						c-0.613,0-1.125,0.512-1.125,1.125c0,20.333,0,40.667,0,61c0,0.613,0.512,1.125,1.125,1.125c13.333,0,26.667,0,40,0
						c-0.375-0.375-0.75-0.75-1.125-1.125c0,18,0,36,0,54c0.375-0.375,0.75-0.75,1.125-1.125c-13.667,0-27.333,0-41,0
						c0.375,0.375,0.75,0.75,1.125,1.125c0-10.833,0-21.667,0-32.5c0-1.451-2.25-1.451-2.25,0c0,10.833,0,21.667,0,32.5
						c0,0.613,0.512,1.125,1.125,1.125c13.667,0,27.333,0,41,0c0.613,0,1.125-0.512,1.125-1.125c0-18,0-36,0-54
						c0-0.613-0.512-1.125-1.125-1.125c-13.333,0-26.667,0-40,0c0.375,0.375,0.75,0.75,1.125,1.125c0-20.333,0-40.667,0-61
						c-0.375,0.375-0.75,0.75-1.125,1.125c13.667,0,27.333,0,41,0c-0.375-0.375-0.75-0.75-1.125-1.125c0,14.5,0,29,0,43.5
						C80.143-130.976,82.393-130.976,82.393-132.427L82.393-132.427z"/>
				</g>
			</g>
			<g>
				<g>
					<path fill="#FFFFFF" d="M129.143-175.427c0,38.333,0,76.667,0,115c0.737-0.1,1.473-0.199,2.21-0.299
						c-13.667-38.334-27.333-76.667-41-115c-0.415-1.163-2.21-1.023-2.21,0.299c0,38.333,0,76.667,0,115c0,1.451,2.25,1.451,2.25,0
						c0-38.333,0-76.667,0-115c-0.737,0.1-1.473,0.199-2.21,0.299c13.667,38.334,27.333,76.667,41,115
						c0.415,1.163,2.21,1.024,2.21-0.299c0-38.333,0-76.667,0-115C131.393-176.878,129.143-176.878,129.143-175.427L129.143-175.427
						z"/>
				</g>
			</g>
		</g>
	</g>
	<g display="none">
		<ellipse display="inline" fill="#29ABE2" cx="875.232" cy="-506.573" rx="82.768" ry="83.427"/>
		<g display="inline">
			<g>
				<g>
					<path d="M872.857-520.573c0-14.5,0-29,0-43.5c0-0.613-0.512-1.125-1.125-1.125c-13.667,0-27.333,0-41,0
						c-0.613,0-1.125,0.512-1.125,1.125c0,20.333,0,40.667,0,61c0,0.613,0.512,1.125,1.125,1.125c13.333,0,26.667,0,40,0
						c-0.375-0.375-0.75-0.75-1.125-1.125c0,18,0,36,0,54c0.375-0.375,0.75-0.75,1.125-1.125c-13.667,0-27.333,0-41,0
						c0.375,0.375,0.75,0.75,1.125,1.125c0-10.833,0-21.667,0-32.5c0-1.451-2.25-1.451-2.25,0c0,10.833,0,21.667,0,32.5
						c0,0.613,0.512,1.125,1.125,1.125c13.667,0,27.333,0,41,0c0.613,0,1.125-0.512,1.125-1.125c0-18,0-36,0-54
						c0-0.613-0.512-1.125-1.125-1.125c-13.333,0-26.667,0-40,0c0.375,0.375,0.75,0.75,1.125,1.125c0-20.333,0-40.667,0-61
						c-0.375,0.375-0.75,0.75-1.125,1.125c13.667,0,27.333,0,41,0c-0.375-0.375-0.75-0.75-1.125-1.125c0,14.5,0,29,0,43.5
						C870.607-519.122,872.857-519.122,872.857-520.573L872.857-520.573z"/>
				</g>
			</g>
			<g>
				<g>
					<path d="M919.607-563.573c0,38.333,0,76.667,0,115c0.736-0.1,1.474-0.199,2.21-0.299c-13.667-38.333-27.333-76.667-41-115
						c-0.415-1.164-2.21-1.024-2.21,0.299c0,38.333,0,76.667,0,115c0,1.451,2.25,1.451,2.25,0c0-38.333,0-76.667,0-115
						c-0.736,0.1-1.474,0.199-2.21,0.299c13.667,38.333,27.333,76.667,41,115c0.415,1.164,2.21,1.024,2.21-0.299
						c0-38.333,0-76.667,0-115C921.857-565.024,919.607-565.024,919.607-563.573L919.607-563.573z"/>
				</g>
			</g>
		</g>
	</g>
	<g>
		<g>
			<g>
				<path fill="#29ABE2" d="M793.59-119.427c0.194-23.675,10.121-45.897,27.693-61.776c17.786-16.072,42.402-23.003,66.003-19.643
					c22.952,3.268,43.401,16.979,56.148,36.161c13.225,19.897,16.597,45.109,10.283,68c-10.824,39.251-50.548,64.37-90.539,58.677
					C823.182-43.702,793.916-79.609,793.59-119.427c-0.012-1.45-2.262-1.451-2.25,0c0.36,43.982,34.319,81.061,78.341,84.367
					c43.505,3.268,83.395-30.168,88.719-73.273c5.438-44.03-24.08-85.771-67.843-94.234c-43.322-8.378-85.777,20.243-96.674,62.4
					c-1.748,6.762-2.485,13.77-2.543,20.74C791.328-117.976,793.578-117.977,793.59-119.427z"/>
			</g>
		</g>
		<g>
			<g>
				<g>
					<path fill="#29ABE2" d="M872.857-133.427c0-14.5,0-29,0-43.5c0-0.613-0.512-1.125-1.125-1.125c-13.667,0-27.333,0-41,0
						c-0.613,0-1.125,0.512-1.125,1.125c0,20.333,0,40.667,0,61c0,0.613,0.512,1.125,1.125,1.125c13.333,0,26.667,0,40,0
						c-0.375-0.375-0.75-0.75-1.125-1.125c0,18,0,36,0,54c0.375-0.375,0.75-0.75,1.125-1.125c-13.667,0-27.333,0-41,0
						c0.375,0.375,0.75,0.75,1.125,1.125c0-10.833,0-21.667,0-32.5c0-1.451-2.25-1.451-2.25,0c0,10.833,0,21.667,0,32.5
						c0,0.613,0.512,1.125,1.125,1.125c13.667,0,27.333,0,41,0c0.613,0,1.125-0.512,1.125-1.125c0-18,0-36,0-54
						c0-0.613-0.512-1.125-1.125-1.125c-13.333,0-26.667,0-40,0c0.375,0.375,0.75,0.75,1.125,1.125c0-20.333,0-40.667,0-61
						c-0.375,0.375-0.75,0.75-1.125,1.125c13.667,0,27.333,0,41,0c-0.375-0.375-0.75-0.75-1.125-1.125c0,14.5,0,29,0,43.5
						C870.607-131.976,872.857-131.976,872.857-133.427L872.857-133.427z"/>
				</g>
			</g>
			<g>
				<g>
					<path fill="#29ABE2" d="M919.607-176.427c0,38.333,0,76.667,0,115c0.736-0.1,1.474-0.199,2.21-0.299
						c-13.667-38.334-27.333-76.667-41-115c-0.415-1.163-2.21-1.023-2.21,0.299c0,38.333,0,76.667,0,115c0,1.451,2.25,1.451,2.25,0
						c0-38.333,0-76.667,0-115c-0.736,0.1-1.474,0.199-2.21,0.299c13.667,38.334,27.333,76.667,41,115
						c0.415,1.163,2.21,1.024,2.21-0.299c0-38.333,0-76.667,0-115C921.857-177.878,919.607-177.878,919.607-176.427L919.607-176.427
						z"/>
				</g>
			</g>
		</g>
	</g>
	<g>
		<g>
			<g>
				<path fill="#29ABE2" d="M313.991,280c0.187-46.075,19.038-90.164,52.371-121.997c33.278-31.78,79.031-47.821,124.815-44.985
					c45.408,2.813,87.834,25.468,116.76,60.314c29.751,35.841,42.718,83.75,36.524,129.763
					c-6.047,44.93-30.95,86.073-67.492,112.767c-37.356,27.289-85.378,37.289-130.61,28.056
					c-36.968-7.547-70.274-28.312-94.295-57.249C327.316,356.854,314.147,318.618,313.991,280c-0.012-2.949-4.587-2.951-4.575,0
					c0.181,44.561,17.353,87.451,48.132,119.694c30.44,31.889,72.891,50.506,116.841,52.139
					c44.342,1.647,87.887-15.016,120.569-44.813c32.632-29.752,52.227-71.845,55.261-115.755
					c3.083-44.604-11.989-89.094-40.731-123.182c-28.278-33.538-69.273-54.686-112.794-59.186
					c-44.368-4.588-89.091,9.379-123.717,37.232c-34.044,27.385-56.643,68.233-62.115,111.535
					c-0.938,7.417-1.416,14.857-1.446,22.334C309.404,282.951,313.979,282.949,313.991,280z"/>
			</g>
		</g>
		<g>
			<g>
				<path fill="#29ABE2" d="M475.171,237.299c0-24.739,0-49.479,0-74.218c0-1.247-1.041-2.287-2.288-2.287
					c-27.79,0-55.58,0-83.369,0c-1.247,0-2.288,1.04-2.288,2.287c0,40.668,0,81.335,0,122.003c0,1.247,1.041,2.287,2.288,2.287
					c27.112,0,54.223,0,81.335,0c-0.763-0.762-1.525-1.524-2.288-2.287c0,37.278,0,74.557,0,111.835
					c0.763-0.763,1.525-1.525,2.288-2.287c-26.434,0-52.868,0-79.302,0c0.763,0.762,1.525,1.524,2.288,2.287
					c0-24.062,0-48.123,0-72.185c0-2.95-4.575-2.95-4.575,0c0,24.062,0,48.123,0,72.185c0,1.247,1.041,2.287,2.288,2.287
					c26.434,0,52.868,0,79.302,0c1.247,0,2.288-1.04,2.288-2.287c0-37.278,0-74.557,0-111.835c0-1.247-1.041-2.287-2.288-2.287
					c-27.112,0-54.223,0-81.335,0c0.763,0.762,1.525,1.524,2.288,2.287c0-40.668,0-81.335,0-122.003
					c-0.763,0.763-1.525,1.525-2.288,2.287c27.79,0,55.58,0,83.369,0c-0.763-0.762-1.525-1.524-2.288-2.287
					c0,24.739,0,49.479,0,74.218C470.596,240.249,475.171,240.249,475.171,237.299L475.171,237.299z"/>
			</g>
		</g>
		<g>
			<g>
				<path fill="#29ABE2" d="M572.266,164.098c0,47.081,0,94.162,0,141.243c0,30.864,0,61.729,0,92.595
					c1.497-0.203,2.995-0.405,4.493-0.608c-15.401-43.197-30.803-86.395-46.203-129.592c-12.39-34.748-24.778-69.497-37.167-104.246
					c-0.844-2.364-4.493-2.081-4.493,0.608c0,47.081,0,94.162,0,141.243c0,30.864,0,61.729,0,92.595c0,2.95,4.574,2.95,4.574,0
					c0-47.081,0-94.162,0-141.243c0-30.864,0-61.729,0-92.595c-1.497,0.203-2.995,0.405-4.493,0.608
					c15.401,43.197,30.803,86.395,46.203,129.592c12.39,34.748,24.778,69.497,37.167,104.246c0.844,2.364,4.493,2.081,4.493-0.608
					c0-47.081,0-94.162,0-141.243c0-30.864,0-61.729,0-92.595C576.84,161.147,572.266,161.147,572.266,164.098L572.266,164.098z"/>
			</g>
		</g>
	</g>
	<text transform="matrix(1 0 0 1 294.0801 -255.75)" display="none" font-family="'AgencyFB-Reg'" font-size="25">webdesign</text>
	<text transform="matrix(1 0 0 1 380.0605 -202.8535)" display="none" font-family="'AgencyFB-Reg'" font-size="25">Turning ideas into designs</text>
	<text transform="matrix(1 0 0 1 566.9277 -255.25)" display="none" font-family="'AgencyFB-Reg'" font-size="25">web development</text>
	<rect y="-593" display="none" fill="#C1272D" width="203" height="203"/>
	<path display="none" fill="#29ABE2" d="M97-580.927c-45.711,0-82.768,37.352-82.768,83.427S51.289-414.073,97-414.073
		s82.768-37.352,82.768-83.427S142.711-580.927,97-580.927z M94-506H83v-41H66v53h27v57H53v-38h10v28h21v-39H54v-71h40V-506z
		 M139-437h-17.382l-12.99-100.915L109.959-437H97v-120h17.29L129-451.077V-557h10V-437z"/>
</g>
</svg>
